<?xml version="1.0" standalone="no"?>
<!DOCTYPE svg PUBLIC "-//W3C//DTD SVG 20010904//EN"
 "http://www.w3.org/TR/2001/REC-SVG-20010904/DTD/svg10.dtd">
<svg version="1.0" xmlns="http://www.w3.org/2000/svg"
 width="432.000000pt" height="432.000000pt" viewBox="0 0 432.000000 432.000000"
 preserveAspectRatio="xMidYMid meet">
<metadata>
Created by potrace 1.14, written by Peter Selinger 2001-2017
</metadata>
<g transform="translate(0.000000,432.000000) scale(0.100000,-0.100000)"
fill="#000000" stroke="none">
<path d="M0 2160 l0 -2160 2160 0 2160 0 0 2160 0 2160 -2160 0 -2160 0 0
-2160z m1120 2114 c0 -7 -260 -747 -263 -750 -2 -2 -170 -57 -617 -203 -102
-34 -189 -61 -193 -61 -4 0 -7 230 -7 510 l0 510 540 0 c297 0 540 -3 540 -6z
m1550 -160 c-313 -103 -514 -164 -530 -161 -14 2 -77 23 -140 45 -63 23 -268
95 -455 161 l-340 120 985 0 985 0 -505 -165z m1610 -375 c0 -511 -1 -541 -17
-534 -10 3 -175 62 -367 130 -192 68 -352 127 -356 132 -4 4 -38 103 -75 218
-38 116 -96 297 -130 403 l-63 192 504 0 504 0 0 -541z m-1017 474 c17 -56
231 -712 364 -1116 35 -109 62 -205 59 -213 -3 -8 -2 -13 3 -9 5 3 16 -16 24
-42 9 -27 54 -165 100 -308 82 -250 319 -978 414 -1270 25 -77 48 -145 50
-152 3 -7 -146 -61 -429 -153 -238 -78 -543 -177 -676 -221 -134 -44 -250 -78
-258 -75 -8 3 -14 1 -14 -5 0 -6 -7 -9 -15 -5 -8 3 -15 1 -15 -4 0 -5 -195
-73 -432 -150 -645 -211 -1310 -427 -1335 -434 -20 -6 -24 1 -53 91 -17 54
-65 202 -106 328 -42 127 -109 334 -150 460 -42 127 -108 331 -149 455 -40
124 -137 421 -215 660 -78 239 -175 536 -215 660 -119 362 -165 505 -165 512
0 7 9 10 705 237 659 215 654 213 665 206 5 -3 10 -1 10 5 0 7 7 10 15 6 8 -3
15 -1 15 4 0 4 161 61 358 125 1063 347 1312 428 1362 445 30 10 57 19 60 19
3 1 14 -25 23 -56z m-1631 -119 c252 -87 458 -161 458 -164 0 -7 -1181 -393
-1186 -387 -3 3 204 606 238 690 6 15 16 26 22 24 6 -2 217 -75 468 -163z
m2281 -798 c192 -68 351 -127 354 -130 5 -5 -312 -924 -322 -934 -2 -2 -74
211 -160 475 -86 263 -174 531 -195 596 -21 64 -35 117 -32 117 4 0 164 -56
355 -124z m-3703 -664 l161 -494 -159 -456 c-88 -252 -162 -464 -165 -472 -3
-8 -5 424 -5 960 0 536 1 971 3 965 3 -5 77 -232 165 -503z m4069 -499 c0
-805 -3 -932 -14 -898 -8 22 -80 241 -160 487 l-146 448 158 450 c87 247 159
450 160 450 2 0 3 -422 2 -937z m-3739 -513 c78 -239 163 -501 190 -582 26
-82 44 -148 40 -148 -13 0 -695 242 -703 250 -5 4 65 217 154 474 90 256 166
460 170 454 4 -7 71 -209 149 -448z m-124 -641 c203 -71 372 -133 376 -137 3
-4 13 -29 21 -57 8 -27 65 -203 126 -391 61 -187 111 -343 111 -347 0 -4 -227
-7 -505 -7 l-505 0 0 535 c0 294 1 535 3 535 2 0 169 -59 373 -131z m3864
-429 l0 -510 -534 0 -535 0 76 217 c41 120 100 290 130 379 l55 160 396 131
c218 72 400 131 405 132 4 1 7 -228 7 -509z m-850 223 c-1 -23 -249 -718 -257
-720 -8 -3 -758 253 -922 314 l-44 17 114 37 c711 233 1095 358 1102 359 4 0
7 -3 7 -7z m-840 -558 c184 -64 371 -129 415 -145 l80 -29 -960 1 -960 0 195
65 c107 35 330 109 495 162 l300 98 50 -18 c28 -10 201 -70 385 -134z"/>
<path d="M2585 3575 c-457 -150 -443 -146 -449 -132 -3 7 -5 6 -5 -3 -1 -11
-124 -55 -432 -155 -238 -77 -437 -140 -443 -140 -6 0 -13 -3 -16 -6 -3 -3
-140 -49 -305 -103 -165 -54 -301 -99 -303 -101 -2 -2 53 -176 122 -388 69
-211 126 -393 126 -405 0 -11 4 -22 8 -24 8 -3 284 -839 287 -868 0 -9 4 -20
8 -27 4 -6 50 -143 103 -304 53 -162 98 -295 99 -297 2 -2 176 53 389 122 212
69 393 127 403 129 10 1 23 5 28 9 6 3 206 70 445 148 239 78 523 170 630 205
107 35 246 80 308 100 61 20 112 39 112 42 0 3 -58 185 -130 404 -71 219 -130
401 -130 404 0 4 6 3 13 -1 6 -4 9 -4 5 1 -4 4 -3 16 2 26 7 12 6 20 -2 25 -6
4 -8 3 -5 -2 6 -11 -9 -42 -16 -34 -12 12 -287 871 -282 879 3 5 1 11 -4 13
-7 2 -98 269 -181 531 -12 37 -25 67 -28 67 -4 -1 -164 -52 -357 -115z m368
33 c9 -28 15 -54 13 -57 -1 -3 -43 -75 -92 -159 -49 -84 -97 -167 -107 -185
-216 -376 -444 -760 -455 -764 -7 -3 -16 -3 -19 1 -6 6 253 726 288 800 11 22
19 45 19 50 0 6 24 76 54 156 l54 145 98 32 c55 17 106 32 115 32 10 1 21 -17
32 -51z m-309 -125 c-20 -54 -60 -163 -89 -243 -80 -218 -187 -509 -240 -653
-37 -99 -51 -127 -64 -125 -9 2 -15 10 -14 18 5 36 105 598 129 720 14 74 27
151 30 170 2 19 7 55 12 80 l7 45 120 42 c66 23 126 42 132 42 8 1 0 -33 -23
-96z m386 -110 l42 -132 -43 -51 c-31 -37 -45 -47 -52 -38 -6 9 -7 8 -3 -4 3
-11 -25 -53 -87 -126 -356 -422 -520 -612 -527 -612 -5 0 -12 4 -15 10 -6 10
431 772 447 778 4 2 8 8 8 14 0 19 174 308 181 300 4 -4 26 -66 49 -139z
m-728 -408 c-74 -415 -90 -490 -105 -493 -16 -3 -17 26 -17 473 0 315 3 474
10 470 6 -3 10 -2 10 4 0 6 42 23 93 39 79 24 92 26 94 13 1 -9 -37 -236 -85
-506z m-142 -25 c0 -463 0 -470 -20 -470 -11 0 -20 3 -20 8 0 4 -23 133 -50
287 -92 515 -101 568 -97 578 3 10 147 65 175 66 9 1 12 -99 12 -469z m-210
393 c0 -5 34 -201 76 -436 42 -235 74 -430 71 -434 -4 -3 -12 -3 -19 0 -15 5
-315 814 -306 823 7 6 148 52 166 53 6 1 12 -2 12 -6z m-58 -455 c81 -222 149
-409 150 -417 2 -8 -4 -16 -12 -18 -14 -3 -42 43 -406 669 l-63 107 87 30 c48
16 89 30 92 30 3 1 71 -180 152 -401z m-291 234 c31 -53 130 -226 222 -383 91
-157 167 -292 169 -300 9 -41 -40 0 -143 121 -392 461 -501 592 -497 596 6 6
170 62 183 63 6 0 35 -43 66 -97z m1499 41 c7 -27 19 -63 27 -82 35 -78 51
-60 -346 -390 -201 -167 -372 -304 -380 -305 -9 -1 -16 4 -16 10 0 11 565 688
609 729 11 11 34 37 49 58 16 21 32 35 36 32 5 -2 14 -26 21 -52z m-1668 -141
c58 -70 199 -237 313 -370 134 -159 204 -249 201 -259 -3 -8 -10 -13 -15 -11
-15 5 -829 682 -830 690 -1 5 77 35 112 42 7 2 23 7 37 13 44 18 55 21 65 22
6 0 58 -57 117 -127z m77 -317 c225 -187 410 -344 410 -348 3 -31 -70 5 -418
204 -215 122 -388 226 -386 230 3 4 -1 6 -8 5 -15 -1 -316 166 -317 176 0 4
62 27 138 51 108 35 141 42 154 33 9 -6 201 -164 427 -351z m1684 174 c16 -51
25 -95 20 -99 -4 -4 -178 -105 -387 -225 -337 -193 -418 -232 -404 -196 5 13
721 610 733 610 6 1 23 -40 38 -90z m-2269 -11 c88 -50 164 -96 168 -102 4 -6
12 -11 17 -11 16 0 781 -439 781 -448 0 -4 -6 -10 -14 -13 -19 -7 -836 288
-829 300 3 5 1 6 -6 2 -6 -4 -79 17 -161 46 l-150 53 -35 111 c-19 62 -35 116
-35 121 0 11 52 30 84 32 10 1 91 -40 180 -91z m2340 -202 c14 -44 25 -81 23
-82 -7 -7 -811 -294 -824 -294 -8 0 -13 7 -11 15 4 18 770 458 779 447 3 -4
18 -43 33 -86z m-2379 -46 c66 -24 127 -49 136 -57 9 -7 18 -11 21 -8 3 3 113
-33 244 -80 132 -48 317 -114 411 -148 95 -34 173 -64 173 -67 0 -28 -33 -25
-450 48 -239 42 -437 80 -438 84 -2 5 -8 6 -12 3 -5 -3 -40 0 -78 6 l-68 11
-39 117 c-21 64 -40 122 -43 130 -4 10 -1 13 9 9 8 -3 68 -25 134 -48z m2441
-145 c15 -47 25 -87 23 -89 -2 -2 -141 -27 -309 -56 -168 -29 -361 -63 -430
-75 -69 -13 -128 -21 -132 -18 -28 16 29 42 362 162 464 167 444 160 452 161
4 0 19 -38 34 -85z m-1167 -92 c-1 -83 -10 -72 -24 26 -6 43 -4 51 9 51 13 0
16 -13 15 -77z m45 40 c-18 -104 -22 -110 -23 -35 -1 59 2 72 14 72 13 0 15
-8 9 -37z m-85 -35 c6 -34 9 -63 7 -65 -3 -3 -46 108 -46 121 0 3 6 6 14 6 9
0 18 -21 25 -62z m141 60 c0 -2 -12 -32 -25 -68 l-26 -65 6 50 c8 69 14 85 31
85 8 0 14 -1 14 -2z m-200 -13 c0 -2 11 -34 25 -70 13 -36 23 -65 21 -65 -9 0
-75 123 -70 131 5 9 24 13 24 4z m209 -74 c-18 -33 -35 -59 -36 -57 -2 2 5 25
15 52 10 27 22 58 26 68 5 14 10 16 17 9 8 -8 2 -28 -22 -72z m-221 -7 c18
-31 31 -58 29 -60 -6 -6 -86 100 -81 108 10 16 21 7 52 -48z m296 48 c2 -4
-18 -32 -45 -62 l-49 -55 36 63 c35 60 47 71 58 54z m-1401 -37 c15 -8 27 -10
27 -6 0 4 111 -12 248 -36 136 -24 326 -57 422 -73 222 -38 220 -38 220 -55 0
-13 -63 -15 -482 -15 -265 0 -478 3 -475 7 4 3 1 13 -7 22 -8 9 -25 53 -39 98
l-25 83 41 -6 c23 -4 54 -12 70 -19z m1075 -34 c23 -28 42 -53 42 -56 0 -3
-25 15 -55 41 -30 26 -52 51 -49 56 9 15 18 9 62 -41z m337 4 c-17 -14 -43
-35 -60 -47 l-30 -22 25 30 c64 75 74 84 84 74 7 -7 1 -18 -19 -35z m1031 -47
c12 -36 25 -76 29 -87 l6 -21 -470 0 c-412 0 -471 2 -471 15 0 8 1 15 3 16 54
14 831 147 851 146 27 -2 31 -8 52 -69z m-1391 10 c30 -23 53 -44 51 -45 -7
-8 -125 70 -120 78 8 14 12 12 69 -33z m415 30 c0 -7 -28 -28 -63 -47 -66 -36
-66 -33 1 23 46 38 62 44 62 24z m-435 -64 c63 -38 61 -38 -22 -9 -29 11 -53
25 -53 32 0 19 9 16 75 -23z m457 21 c0 -10 -112 -58 -119 -51 -5 5 100 65
110 63 5 -2 9 -7 9 -12z m-476 -51 c67 -23 76 -34 17 -23 -80 15 -94 19 -88
29 8 13 13 13 71 -6z m492 4 c-4 -10 -128 -41 -136 -33 -5 4 102 43 121 44 11
1 17 -4 15 -11z m-448 -52 c8 -2 -15 -4 -52 -5 -51 -1 -68 2 -68 13 0 12 44
10 120 -8z m460 3 c0 -5 -30 -8 -67 -8 l-68 2 60 12 c61 12 75 11 75 -6z
m-603 -44 c3 -9 4 -17 2 -19 -11 -10 -884 -155 -890 -149 -7 8 -59 162 -59
176 0 4 212 7 470 7 415 0 471 -2 477 -15z m143 6 c-14 -5 -47 -11 -73 -15
-39 -6 -47 -5 -47 8 0 13 13 16 73 15 49 0 64 -3 47 -8z m460 -7 c0 -13 -8
-15 -52 -9 -91 13 -100 24 -20 24 59 1 72 -2 72 -15z m967 9 c-4 -3 -2 -12 3
-18 6 -7 24 -52 40 -100 l30 -88 -53 7 c-28 4 -61 15 -71 24 -11 9 -16 11 -12
5 4 -7 4 -13 -1 -13 -4 0 -174 29 -378 65 -203 36 -400 70 -437 77 -55 9 -68
14 -68 29 0 18 19 19 477 19 262 0 473 -3 470 -7z m-1408 -27 c-15 -15 -124
-45 -133 -36 -11 11 -2 15 59 29 44 10 81 13 74 7z m374 -7 c38 -8 57 -17 57
-26 0 -9 -6 -13 -12 -11 -7 3 -37 13 -65 22 -29 10 -53 19 -53 22 0 6 12 5 73
-7z m-528 -37 c0 -8 -154 -69 -415 -163 -228 -82 -415 -149 -416 -149 -5 0
-55 173 -51 176 2 3 170 34 373 69 203 35 389 69 414 74 59 12 95 9 95 -7z
m154 14 c-22 -21 -110 -63 -115 -55 -9 15 1 22 54 41 47 16 69 22 61 14z m364
-17 c39 -15 54 -25 50 -35 -4 -12 -15 -9 -52 12 -83 48 -82 55 2 23z m572 -60
c215 -39 406 -72 425 -74 19 -3 55 -8 79 -12 l44 -8 43 -128 c23 -70 40 -127
37 -127 -20 0 -270 96 -276 106 -4 7 -13 11 -20 8 -7 -2 -100 27 -207 65 -574
207 -605 219 -608 236 -5 22 -30 25 483 -66z m-920 52 c-55 -52 -99 -81 -106
-69 -6 9 9 22 49 45 59 34 73 40 57 24z m320 -22 c30 -17 55 -35 55 -39 0 -22
-20 -15 -69 26 -29 24 -50 44 -47 44 4 0 31 -14 61 -31z m-324 -27 c-39 -51
-58 -65 -71 -57 -8 5 84 95 98 95 2 0 -10 -17 -27 -38z m349 -54 c0 -19 -25
-5 -61 35 -53 59 -48 66 11 16 28 -23 50 -46 50 -51z m-495 62 c0 -15 -777
-462 -786 -452 -11 12 -59 165 -54 171 10 10 820 299 830 297 6 -2 10 -9 10
-16z m441 -67 c9 -12 13 -27 9 -33 -8 -13 -16 -2 -59 75 l-27 50 31 -35 c17
-19 38 -45 46 -57z m543 -59 c223 -80 408 -150 409 -155 2 -5 7 -7 11 -4 5 2
75 -20 157 -49 l149 -53 32 -92 c18 -50 35 -106 38 -124 6 -33 5 -34 -37 -46
l-43 -12 -170 97 c-94 53 -173 102 -177 107 -3 6 -13 12 -21 13 -8 1 -184 98
-391 215 -267 152 -375 219 -376 232 0 9 3 17 7 17 3 0 189 -66 412 -146z
m-816 85 c-27 -49 -47 -68 -60 -56 -5 5 75 107 84 107 2 0 -8 -23 -24 -51z
m30 -21 c-29 -73 -28 -72 -42 -63 -7 4 -2 23 16 53 52 91 61 95 26 10z m186 7
c29 -51 33 -75 12 -75 -4 0 -15 24 -25 53 -9 28 -20 58 -23 65 -13 31 8 7 36
-43z m-150 -24 c-8 -42 -16 -61 -26 -61 -8 0 -13 6 -11 13 3 6 13 36 23 64 10
29 20 51 23 49 2 -2 -2 -31 -9 -65z m41 -1 c0 -57 -3 -70 -16 -70 -13 0 -15 8
-9 43 18 119 25 127 25 27z m78 -2 c17 -48 19 -58 7 -58 -8 0 -17 10 -20 23
-28 123 -24 134 13 35z m-34 -35 c4 -25 2 -33 -9 -33 -12 0 -15 14 -14 68 1
69 4 64 23 -35z m-289 69 c0 -12 -728 -622 -742 -622 -12 0 -65 182 -56 191
19 19 779 448 788 446 6 -2 10 -9 10 -15z m919 -207 c211 -121 382 -223 380
-226 -2 -4 2 -6 9 -5 14 1 327 -175 327 -184 0 -11 -268 -93 -283 -87 -21 8
-847 697 -847 706 0 11 12 22 21 19 5 -2 181 -102 393 -223z m-897 136 c-12
-14 -154 -182 -316 -373 -161 -191 -298 -345 -304 -341 -6 3 -7 1 -3 -5 7 -12
-52 -85 -64 -77 -9 6 -35 96 -32 113 2 6 -1 12 -6 12 -9 0 -38 88 -31 94 2 2
172 143 378 314 290 242 377 309 388 301 10 -9 9 -16 -10 -38z m846 -269 c210
-175 399 -331 419 -347 21 -17 38 -33 38 -36 0 -6 -100 -39 -119 -39 -9 0 -9
5 -1 20 6 11 8 20 5 20 -3 0 1 13 10 29 11 22 12 32 3 37 -7 4 -8 3 -4 -4 4
-7 3 -12 -2 -12 -5 0 -9 -7 -10 -15 -1 -8 -3 -22 -4 -30 -1 -8 -5 -15 -10 -15
-5 0 -7 -4 -4 -9 14 -21 -79 -74 -93 -53 -8 11 -423 501 -514 607 -99 114
-120 143 -112 155 3 5 8 10 11 10 3 0 177 -143 387 -318z m-788 268 c7 -11
-418 -747 -446 -772 -11 -9 -19 -23 -19 -31 0 -20 -163 -298 -175 -298 -5 0
-29 61 -53 136 l-43 136 42 47 c23 26 45 46 50 45 5 -2 9 3 9 10 0 14 98 133
453 550 88 103 163 187 168 187 4 0 11 -4 14 -10z m685 -362 c170 -202 310
-370 310 -372 0 -6 -191 -68 -195 -64 -1 2 -85 145 -185 318 -101 173 -203
348 -227 389 -40 66 -50 108 -23 99 5 -2 149 -168 320 -370z m-636 321 c-2
-26 -287 -794 -301 -810 -7 -9 -11 -18 -8 -21 5 -5 -86 -262 -105 -298 -6 -12
-190 -80 -229 -84 -2 -1 -12 23 -22 52 l-18 54 101 173 c56 96 106 171 111
168 6 -3 7 -1 3 5 -5 9 399 722 437 770 12 16 32 10 31 -9z m495 -359 c122
-209 224 -386 227 -394 4 -11 -16 -21 -80 -42 -53 -18 -89 -24 -94 -19 -5 6
-42 100 -82 210 -40 110 -106 290 -147 400 -68 185 -78 225 -54 225 5 0 108
-171 230 -380z m-439 346 c0 -36 -152 -861 -160 -871 -6 -7 -7 -15 -4 -18 3
-3 1 -37 -6 -74 l-11 -69 -126 -42 c-70 -23 -129 -40 -131 -37 -8 7 101 294
110 289 4 -3 5 1 3 8 -3 7 60 191 140 408 80 217 147 401 150 408 6 17 35 15
35 -2z m319 -402 c84 -228 151 -417 149 -418 -10 -9 -170 -57 -175 -53 -2 3
-31 153 -63 334 -32 180 -67 376 -78 435 -19 107 -19 118 3 118 7 0 81 -187
164 -416z m-261 -71 c-2 -376 -6 -477 -15 -476 -7 2 -13 -1 -13 -6 0 -9 -180
-74 -187 -68 -1 2 3 34 10 71 7 37 15 64 19 61 4 -4 5 1 2 12 -3 10 29 208 71
441 41 233 75 427 75 432 0 6 9 10 20 10 20 0 20 -5 18 -477z m133 37 c43
-239 78 -438 79 -442 0 -3 -37 -19 -82 -34 -46 -15 -89 -29 -95 -32 -10 -3
-13 95 -13 473 0 441 1 476 17 473 14 -2 30 -77 94 -438z"/>
<path d="M1205 3081 c-3 -5 0 -13 6 -17 7 -4 9 -3 5 4 -3 5 0 13 6 15 9 4 10
6 1 6 -6 1 -14 -3 -18 -8z"/>
<path d="M1195 3041 c-3 -5 -2 -12 3 -15 5 -3 9 1 9 9 0 17 -3 19 -12 6z"/>
<path d="M1150 2911 c-13 -25 -13 -31 2 -31 6 0 8 3 5 6 -3 4 -2 15 4 25 5 11
7 19 5 19 -3 0 -10 -9 -16 -19z"/>
<path d="M1127 2843 c-10 -9 -9 -23 1 -23 5 0 9 7 9 15 0 17 -1 18 -10 8z"/>
<path d="M1070 2691 c-7 -14 -7 -22 2 -27 7 -4 8 -3 4 4 -4 7 -3 12 2 12 5 0
9 7 9 15 0 20 -4 19 -17 -4z"/>
<path d="M1057 2643 c-10 -9 -9 -23 1 -23 5 0 9 7 9 15 0 17 -1 18 -10 8z"/>
<path d="M1000 2491 c-7 -14 -7 -22 2 -27 7 -4 8 -3 4 4 -4 7 -2 12 4 12 6 0
9 4 6 9 -4 5 0 12 6 14 10 4 10 6 1 6 -7 1 -17 -8 -23 -18z"/>
<path d="M975 2421 c-3 -5 0 -13 6 -17 7 -4 9 -3 5 4 -3 5 0 13 6 15 9 4 10 6
1 6 -6 1 -14 -3 -18 -8z"/>
<path d="M935 2301 c-11 -22 -12 -32 -3 -37 7 -4 8 -3 4 4 -4 7 -2 12 5 12 7
0 9 3 6 6 -3 4 -2 15 4 25 5 11 7 19 5 19 -3 0 -12 -13 -21 -29z"/>
<path d="M910 2231 c-7 -14 -7 -22 2 -27 7 -4 8 -3 4 4 -4 7 -3 12 2 12 5 0 9
7 9 15 0 20 -4 19 -17 -4z"/>
<path d="M3412 2115 c4 -4 3 -16 -3 -26 -5 -11 -7 -19 -5 -19 3 0 10 9 16 19
7 15 7 22 -2 27 -7 4 -10 4 -6 -1z"/>
<path d="M3394 2052 c4 -7 2 -12 -5 -12 -7 0 -9 -3 -6 -6 3 -4 2 -15 -4 -25
-5 -11 -7 -19 -5 -19 3 0 12 13 21 29 11 22 12 32 3 37 -7 4 -8 3 -4 -4z"/>
<path d="M3344 1912 c4 -7 3 -12 -2 -12 -5 0 -9 -7 -9 -15 0 -20 4 -19 17 4 7
14 7 22 -2 27 -7 4 -8 3 -4 -4z"/>
<path d="M3324 1852 c4 -7 2 -12 -5 -12 -7 0 -9 -3 -6 -6 3 -4 2 -15 -4 -25
-5 -11 -7 -19 -5 -19 3 0 12 13 21 29 11 22 12 32 3 37 -7 4 -8 3 -4 -4z"/>
<path d="M3272 1715 c4 -4 3 -16 -3 -26 -5 -11 -7 -19 -5 -19 3 0 10 9 16 19
7 15 7 22 -2 27 -7 4 -10 4 -6 -1z"/>
<path d="M3254 1652 c4 -7 3 -12 -2 -12 -5 0 -9 -7 -9 -15 0 -20 4 -19 17 4 7
14 7 22 -2 27 -7 4 -8 3 -4 -4z"/>
<path d="M3204 1512 c4 -7 3 -12 -2 -12 -5 0 -9 -7 -9 -15 0 -20 4 -19 17 4 7
14 7 22 -2 27 -7 4 -8 3 -4 -4z"/>
<path d="M3172 1435 c4 -4 3 -16 -3 -26 -5 -11 -7 -19 -5 -19 3 0 10 9 16 19
7 15 7 22 -2 27 -7 4 -10 4 -6 -1z"/>
<path d="M1395 3621 c-3 -5 0 -13 6 -17 7 -4 9 -3 5 4 -3 5 0 13 6 15 9 4 10
6 1 6 -6 1 -14 -3 -18 -8z"/>
<path d="M1387 3583 c-10 -9 -9 -23 1 -23 5 0 9 7 9 15 0 17 -1 18 -10 8z"/>
<path d="M1355 3501 c-3 -5 -2 -12 3 -15 5 -3 9 1 9 9 0 17 -3 19 -12 6z"/>
<path d="M1325 3421 c-3 -5 0 -13 6 -17 7 -4 9 -3 5 4 -3 5 0 13 6 15 9 4 10
6 1 6 -6 1 -14 -3 -18 -8z"/>
<path d="M1317 3383 c-10 -9 -9 -23 1 -23 5 0 9 7 9 15 0 17 -1 18 -10 8z"/>
<path d="M1290 3311 c-7 -15 -7 -22 2 -27 7 -4 10 -4 6 1 -4 4 -3 16 3 26 5
11 7 19 5 19 -3 0 -10 -9 -16 -19z"/>
<path d="M1260 3231 c-7 -14 -7 -22 2 -27 7 -4 8 -3 4 4 -4 7 -3 12 2 12 5 0
9 7 9 15 0 20 -4 19 -17 -4z"/>
<path d="M3672 2855 c4 -4 3 -16 -3 -26 -5 -11 -7 -19 -5 -19 3 0 10 9 16 19
7 15 7 22 -2 27 -7 4 -10 4 -6 -1z"/>
<path d="M3652 2795 c4 -4 1 -20 -7 -36 -12 -22 -12 -29 -2 -35 6 -4 9 -4 5 1
-4 4 -1 20 7 36 12 22 12 29 2 35 -6 4 -9 4 -5 -1z"/>
<path d="M3624 2712 c4 -7 2 -12 -5 -12 -7 0 -9 -3 -6 -6 3 -4 2 -15 -3 -25
-7 -12 -6 -20 2 -25 7 -4 10 -4 6 1 -4 4 -1 20 7 36 11 20 12 30 3 35 -7 4 -8
3 -4 -4z"/>
<path d="M3593 2625 c0 -8 4 -12 9 -9 5 3 6 10 3 15 -9 13 -12 11 -12 -6z"/>
<path d="M3572 2575 c4 -4 3 -16 -3 -26 -5 -11 -7 -19 -5 -19 3 0 10 9 16 19
7 15 7 22 -2 27 -7 4 -10 4 -6 -1z"/>
<path d="M3554 2512 c4 -7 3 -12 -2 -12 -5 0 -9 -7 -9 -15 0 -20 4 -19 17 4 7
14 7 22 -2 27 -7 4 -8 3 -4 -4z"/>
<path d="M3523 2425 c0 -8 4 -12 9 -9 5 3 6 10 3 15 -9 13 -12 11 -12 -6z"/>
<path d="M3502 2375 c4 -4 3 -16 -2 -26 -7 -12 -6 -20 2 -25 7 -4 10 -4 6 1
-4 4 -3 16 2 26 7 12 6 20 -2 25 -7 4 -10 4 -6 -1z"/>
<path d="M3484 2312 c4 -7 3 -12 -2 -12 -5 0 -9 -7 -9 -15 0 -20 4 -19 17 4 7
14 7 22 -2 27 -7 4 -8 3 -4 -4z"/>
<path d="M815 1961 c-11 -22 -12 -32 -3 -37 7 -4 8 -3 4 4 -4 7 -2 12 4 12 6
0 8 5 5 10 -3 6 -2 10 3 10 5 0 9 7 9 15 0 22 -5 19 -22 -14z"/>
<path d="M795 1901 c-3 -5 -2 -12 3 -15 5 -3 9 1 9 9 0 17 -3 19 -12 6z"/>
<path d="M770 1831 c-7 -14 -7 -22 2 -27 7 -4 8 -3 4 4 -4 7 -3 12 2 12 5 0 9
7 9 15 0 20 -4 19 -17 -4z"/>
<path d="M745 1761 c-3 -5 -2 -12 3 -15 5 -3 9 1 9 9 0 17 -3 19 -12 6z"/>
<path d="M720 1691 c-7 -14 -7 -22 2 -27 7 -4 8 -3 4 4 -4 7 -3 12 2 12 5 0 9
7 9 15 0 20 -4 19 -17 -4z"/>
<path d="M700 1631 c-7 -14 -7 -22 2 -27 7 -4 8 -3 4 4 -4 7 -3 12 2 12 5 0 9
7 9 15 0 20 -4 19 -17 -4z"/>
<path d="M680 1571 c-13 -25 -13 -31 2 -31 6 0 8 3 5 6 -3 4 -2 15 4 25 5 11
7 19 5 19 -3 0 -10 -9 -16 -19z"/>
<path d="M650 1491 c-7 -14 -7 -22 2 -27 7 -4 8 -3 4 4 -4 7 -3 12 2 12 5 0 9
7 9 15 0 20 -4 19 -17 -4z"/>
<path d="M3064 1112 c4 -7 3 -12 -2 -12 -5 0 -9 -7 -9 -15 0 -20 4 -19 17 4 7
14 7 22 -2 27 -7 4 -8 3 -4 -4z"/>
<path d="M3044 1052 c4 -7 3 -12 -2 -12 -5 0 -9 -7 -9 -15 0 -20 4 -19 17 4 7
14 7 22 -2 27 -7 4 -8 3 -4 -4z"/>
<path d="M3014 972 c4 -7 3 -12 -3 -12 -10 0 -9 -26 2 -35 4 -3 5 -2 2 1 -2 4
0 15 5 25 7 12 6 20 -2 25 -7 4 -8 3 -4 -4z"/>
<path d="M2982 895 c4 -4 3 -16 -3 -26 -5 -11 -7 -19 -5 -19 3 0 10 9 16 19 7
15 7 22 -2 27 -7 4 -10 4 -6 -1z"/>
<path d="M2962 835 c4 -4 3 -16 -3 -26 -5 -11 -7 -19 -5 -19 3 0 10 9 16 19 7
15 7 22 -2 27 -7 4 -10 4 -6 -1z"/>
<path d="M2942 775 c4 -4 3 -16 -3 -26 -5 -11 -7 -19 -5 -19 3 0 10 9 16 19 7
15 7 22 -2 27 -7 4 -10 4 -6 -1z"/>
<path d="M2922 715 c4 -4 3 -16 -3 -26 -5 -11 -7 -19 -5 -19 3 0 10 9 16 19 7
15 7 22 -2 27 -7 4 -10 4 -6 -1z"/>
</g>
</svg>
